<?xml version="1.0" standalone="no"?>
<!DOCTYPE svg PUBLIC "-//W3C//DTD SVG 20010904//EN"
 "http://www.w3.org/TR/2001/REC-SVG-20010904/DTD/svg10.dtd">
<svg version="1.0" xmlns="http://www.w3.org/2000/svg"
 width="200.000000pt" height="35.000000pt" viewBox="0 0 200.000000 35.000000"
 preserveAspectRatio="xMidYMid meet">
<metadata>
Created by potrace 1.16, written by Peter Selinger 2001-2019
</metadata>
<g transform="translate(0.000000,35.000000) scale(0.100000,-0.100000)"
fill="#000000" stroke="none">
<path d="M72 285 c36 -24 113 -136 143 -208 l15 -37 123 0 122 1 35 76 c48
105 83 151 133 173 l42 19 -100 0 c-76 0 -94 -3 -75 -10 35 -14 40 -27 25 -69
-20 -56 -74 -160 -84 -160 -12 0 -81 164 -81 193 0 18 8 28 28 35 20 8 -25 11
-168 11 l-195 1 37 -25z"/>
</g>
</svg>
